# xmcd CD database file
#
# Track frame offsets:
#	150
#	21708
#	39712
#	65071
#	84734
#	114951
#	142173
#	167065
#	187101
#	200834
#	233697
#
# Disc length: 3460 seconds
#
# Revision: 0
# Processed by: cddbd v1.5.1PL0 Copyright (c) Steve Scherf et al.
# Submitted via: CDex 1.51
#
DISCID=a90d820b
DTITLE=Berndt Egerbladh - Mousse Au Chocolat
DYEAR=2000
DGENRE=Jazz
TTITLE0=Mousse Au Chocolat
TTITLE1=In Your Own Sweet Way
TTITLE2=Lazy Tour
TTITLE3=Easy Birdie
TTITLE4=Run, Stop And Walk
TTITLE5=Someday My Prince Will Come
TTITLE6=More Than A Blues
TTITLE7=Lonely House
TTITLE8=Bass Bop
TTITLE9=What's New
TTITLE10=Afterwards
EXTD=YEAR: 2000
EXTT0=
EXTT1=
EXTT2=
EXTT3=
EXTT4=
EXTT5=
EXTT6=
EXTT7=
EXTT8=
EXTT9=
EXTT10=
PLAYORDER=
